<svg id="Layer_5_copy_4" data-name="Layer 5 copy 4" xmlns="http://www.w3.org/2000/svg" viewBox="0 0 594.01 752.08"><defs><style>.cls-1{fill:#fffdfc;}.cls-2{fill:#122130;}.cls-3{fill:#37739a;}.cls-4{fill:#142232;}.cls-5{fill:#265470;}.cls-6{fill:#152532;}.cls-7{fill:#3bb2d9;}.cls-8{fill:#4dc6f8;}.cls-9{fill:#3ab0dc;}.cls-10{fill:#fdfbf9;}.cls-11{fill:#2990b4;}.cls-12{fill:#203444;}.cls-13{fill:#f8faf0;}.cls-14{fill:#d5ddd8;}.cls-15{fill:#c7d0cd;}.cls-16{fill:#152333;}.cls-17{fill:#1a507b;}.cls-18{fill:#3285b9;}.cls-19{fill:#26a7e0;}.cls-20{fill:#155994;}.cls-21{fill:#3bd0ff;}.cls-22{fill:#4ddcfb;}.cls-23{fill:#367dae;}.cls-24{fill:#66caf6;}.cls-25{fill:#47d9ff;}.cls-26{fill:#37bff1;}.cls-27{fill:#208dc8;}.cls-28{fill:#2fbff4;}.cls-29{fill:#215871;}.cls-30{fill:#9aecf9;}.cls-31{fill:#f6fcfc;}.cls-32{fill:#20658d;}.cls-33{fill:#fdfff3;}.cls-34{fill:#f2f5ef;}.cls-35{fill:#b0cbd2;}.cls-36{fill:#fefbff;}.cls-37{fill:none;stroke:#000;stroke-miterlimit:10;}</style></defs><path class="cls-1" d="M572.66,501.66l30.85,18.43q-4.75,4.62-9.54,9.22L562.1,509.07l-9.26-5.18c-21-11.7-42-23.46-62.66-35.67q-7.73-4.56-15.35-9.27-3.81-2.37-7.59-4.79-2-1.26-3.91-2.54c-.88-.58-2.71-1.32-3.3-2.18-7.82-11.32-15.55-24.21-24.35-34.9-11.13-13.51-24.09-25.66-36.22-38.25-1.81-1.87-3.58-3.73-5.56-5.43a11.79,11.79,0,0,1-4-6c-.44-1.9.25-3.71,1.08-5.48,1-2.08,2-3.31,3.1-5.24,1.2-2.17,3.11-4.88,4.28-7.06,2.69-5,5-10.41,7.39-15.56,4.79-10.28,7.87-20.82,10.93-31.75l.36-1.31c4-14.62,4.56-28.67,4.56-43.61V147.34c0-.3-.1-2.24-.17-4.43l39.12-13.62q0,4.92,0,9.86L441.27,145l-2.89.89L437,147.18l-.77,3v110L435.1,280.4l-1.33,10.11-4.67,17.23-7.77,20.44-9.48,20.45-7.49,12.07-.66,2-.19,1.26.3,1.3.91,1.52,15.22,15,12.5,12.89c11.38,12.94,23.23,25.28,32.18,40.15a37.71,37.71,0,0,0,3.54,5.28,29.1,29.1,0,0,0,4.25,3.9c6.86,5.39,14.55,9.55,22,14Z" transform="translate(-10.32 -13.46)"/><path class="cls-2" d="M179.76,608.91l0,0q9.06,12.34,18.62,24.31c21.24,26.5,45,50.88,69.66,74.17,11.78,11.11,26.63,24.52,38.79,35.21,12.16-10.69,30-24.1,41.75-35.21,24.68-23.29,48.41-47.67,69.65-74.17q15.24-19,29.18-39c8.29-11.9,18.13-24.33,24.82-37.27.29-.56.58-1.12.86-1.68.43-.87.8-2,.25-2.76a3,3,0,0,0-1.61-.95l-.38-.12c-8.66-2.81-17.4-5.39-26.11-8.07L431.13,539c-1.66-.51-3.37-.93-5-1.53a27.8,27.8,0,0,0-5.25-1.09,52.74,52.74,0,0,1-5.66-.92c-.4-.12-.67-.24-.71-.37-.22-.68.3-1.35.81-1.84a23.4,23.4,0,0,1,4.38-3.3,47.24,47.24,0,0,1,5.16-2.64c3.5-1.55,7.18-2.8,10.81-4.06,1.75-.61,3.49-1.22,5.19-1.86,8.44-3.2,16.91-6.35,25.18-10a4.76,4.76,0,0,0,2.77-2.19,4.84,4.84,0,0,0-.17-3.11C464,489.92,456.24,474.29,450,458.63c-1.8-3.55-3.63-7-5.52-10.49a201.11,201.11,0,0,0-17.05-26.42c-5.66-7.32-11.66-14.31-17.86-21.12l-.75-.82-1.67-1.84a14.63,14.63,0,0,0-.76,3.67,28.36,28.36,0,0,0,.82,6.21c.36,2.08.68,4.17,1,6.25.86,5.55,1.47,11.13,1.87,16.73s.58,11.29.57,16.94-.22,11.37-.61,17.05-.94,11.38-1.65,17-1.58,11.33-2.58,17-2.12,11.2-3.37,16.77-2.59,11-4,16.46-3,10.73-4.58,16.06C380.72,591.27,361,632.18,339,671.61c-1.63,2.92-17.77,27.3-26.57,39.31-3.13,4.27-5.33,7-5.61,6.59-2.26-3-4.48-6.08-6.69-9.14-20.35-28.18-38.74-57.62-53.06-89.45-31-69-43.92-143.62-37.42-218.52.13-1.48.25-3,.4-4.46-2.5,2.67-5,5.38-7.38,8.1-5.1,5.73-10,11.59-14.76,17.68-.59.75-1.14,1.52-1.71,2.28a223.93,223.93,0,0,0-19.45,31.87c-.95,1.83-1.79,3.72-2.56,5.63-.87,2.21-1.75,4.41-2.63,6.62-4.3,10.82-8.53,21.69-12,32.8q-.83,2.59-1.58,5.22a3.61,3.61,0,0,0,2.6,5.3c4.95,2.17,10,4.17,15,6.11l10.16,3.87c7,2.65,14.73,4.72,21.17,8.56a26.56,26.56,0,0,1,2.28,1.52,22.08,22.08,0,0,1,2.09,1.78c.51.49,1,1.16.82,1.84s-5.62,1.17-6.37,1.29a28.07,28.07,0,0,0-5.26,1.09c-1.62.6-3.33,1-5,1.53l-14.14,4.36c-8.7,2.68-17.44,5.26-26.1,8.07l-.39.12a3,3,0,0,0-1.6.95c-.55.8-.19,1.89.24,2.76,6.69,13.55,17,26.53,25.68,39Q174.4,601.65,179.76,608.91ZM562.1,509.07,594,529.31c-2.72,2.62-5.43,5.25-8.16,7.87l-33.49-22-35.77-19.7L468.1,469.18l-.13-.08a171,171,0,0,1,18,47.88,2.06,2.06,0,0,1-1.69,3q-6.58,1.93-13.16,3.94c-3.58,1.1-7.76,1.87-11.09,3.72a1.14,1.14,0,0,0-.41,1.59c1,1.39,3.24,1.65,4.73,2,2.08.48,4.16.89,6.26,1.24,4,.67,8.08,1.14,12.14,1.56,6.65.7,9.49,1,16.64,1.7,1.26.12,7.2.51,7.71,2a2.33,2.33,0,0,1-.53,1.89c-6,9.32-11.93,18.73-17.84,28.13l-21.12,31.77c-7.61,10.27-14.95,20.82-22.94,30.8q-9.84,12.29-19.83,24.43c-8.27,10-16.68,19.87-25.36,29.51a529.94,529.94,0,0,1-62.54,58.49q-6.78,5.46-13.73,10.77c-1,.76-15.52,10.89-16.33,11.41-.65-.53-12.29-10.25-13.28-11q-7.2-5.5-14.2-11.17a542.83,542.83,0,0,1-62.17-58.5c-8.68-9.64-17.09-19.51-25.35-29.51q-10-12.12-19.84-24.43c-8-10-15.33-20.53-22.94-30.8L128,567.74c-5.91-9.4-11.81-18.81-17.84-28.13a2.3,2.3,0,0,1-.53-1.89c.5-1.47,6.45-1.86,7.7-2,7.15-.71,10-1,16.64-1.7,4.06-.42,8.12-.89,12.14-1.56q3.15-.53,6.26-1.24c1.48-.35,3.73-.6,4.69-2a1.11,1.11,0,0,0-.33-1.62c-3.34-1.86-7.53-2.64-11.12-3.74q-6.57-2-13.17-3.94a2.76,2.76,0,0,1-1.53-.84,2.71,2.71,0,0,1-.15-2.17,170.75,170.75,0,0,1,18.59-49l-2,1.18L98.85,495.44l-35.78,19.7L30,536.89Q25.95,533,21.89,529l31.4-19.94,9.27-5.18c21-11.7,42-23.46,62.65-35.67q7.73-4.56,15.35-9.27c2.54-1.58,5.08-3.17,7.59-4.79l3.92-2.54c.88-.58,2.71-1.32,3.3-2.18,7.82-11.32,15.55-24.21,24.35-34.9,11.12-13.51,23.37-25.92,35.5-38.51l9.89-11L224,362.48l-3-5.19c-11.5-20.7-21.81-41.48-26.59-64.93-4.61-22.6-4.14-45.78-4.32-68.72l-.42-52.35v-30.8l12.11,4.38.15,0-.15.43v48.72l6,3.22L232.18,208l24.89,10.22,32.22,13.71,17.08,7.55c5.94-4.57,13.58-7.22,20.36-10.42l22.94-10.84c19.82-9.35,39.88-17.78,60.2-25.89V146.94l11.55-4c.07,2.19.17,4.13.17,4.43v107.5c0,14.94-.59,29-4.56,43.61l-.36,1.31c-3.06,10.93-6.14,21.47-10.93,31.75-2.4,5.15-4.7,10.56-7.39,15.56-1.17,2.18-3.08,4.89-4.28,7.06-1.07,1.93-2.14,3.16-3.1,5.24-.83,1.77-1.52,3.58-1.08,5.48a11.79,11.79,0,0,0,4,6c2,1.7,3.75,3.56,5.56,5.43,12.13,12.59,25.09,24.74,36.22,38.25,8.8,10.69,16.53,23.58,24.35,34.9.59.86,2.42,1.6,3.3,2.18q1.95,1.28,3.91,2.54,3.78,2.43,7.59,4.79,7.62,4.73,15.35,9.27c20.7,12.21,41.67,24,62.66,35.67ZM409.63,273c1.08-13,.22-26.08.22-39.06-1.65,2.86-4,5.48-3.9,9,0,1.46.41,2.87.43,4.33,0,2.39,0,4.79,0,7.18a127.76,127.76,0,0,1-1.57,20.21C402.18,290,396.1,305,390.72,319.5a200.62,200.62,0,0,1-7.79,18.75,108.89,108.89,0,0,1-25,33.22C345,383,328.56,389.94,312.21,395a16.7,16.7,0,0,1-4,.9c-.36,0-.72,0-1.09,0V258.4h-.7l-1-.32c-16.27-5.28-32-12.33-47.29-20l-24.53-12.33c-4.86-2.45-9.81-4.93-15.17-6.05-1.19-.25-2.35-.56-3.51-.9s-2.18-.68-3.26-1L203.29,213q-.19,17.1-.41,34.19c-.26,21.71,1.67,42.71,8.68,63.44a217.76,217.76,0,0,0,16,36.9A135.74,135.74,0,0,0,238.6,364.3c8.23,10.58,17.29,19.72,28.92,26.59a121.43,121.43,0,0,0,39.85,14.77,107.65,107.65,0,0,0,35-11.94,95.62,95.62,0,0,0,33.79-31.11c9-13.78,15.78-28.83,21.39-44.24,1.8-4.95,3.48-9.94,5.08-14.95C405.74,293.51,408.76,283.42,409.63,273ZM395.07,467.58c.51-9.27.12-18.63.09-27.91l-.09-27c0-4.1.08-8.2,0-12.31a124.55,124.55,0,0,0-1-12.92c-.68-4.74-1.58-10.5-2.78-13l-1.52-2.61c-2.55,17.63-11.18,32.53-24.37,44.93-16.82,15.81-37.07,26.71-57.73,36.55-14-7.13-28.69-14.5-41.62-23.55l-.58-.4c-8.41-5.91-16.76-12.12-23.59-19.87a85.8,85.8,0,0,1-15.64-25.22c-.57-1.46-1.79-6.65-1.67-8.22a16.67,16.67,0,0,0-1.06,2.34,100,100,0,0,0-1.77,11.71q-.68,6.74-1.16,13.51c-.6,8.47-.92,17-1.18,25.49-.55,17.67-1.44,38.81,5.62,55.48.33.77.65,1.55,1,2.3,1.11,2.29,2.32,4.51,3.63,6.68a132.27,132.27,0,0,0,14.11,18.68c.28.32,7.73,8.75,7.42,9.28a303,303,0,0,1,19-29.34c10.8-14.68,23.26-28.3,37.53-38.87,1.92,1.21,10.07,8,10.95,8.68,11.78,8.52,20.64,21.17,28.16,33.53.35.59.71,1.17,1.06,1.75,2.75,4.58,5.4,9.21,7.79,14q1.79,3.57,3.39,7.23c.35.79,3.35,6.62,2.91,7.14,2.75-3.22,5.65-6.35,8.29-9.65,4.51-5.64,8.88-11.62,12.93-17.77,2.89-4.4,5.62-8.88,8.11-13.42.33-.61.64-1.25.92-1.9C394.22,478.18,394.79,472.57,395.07,467.58Zm-8.95,48a48.11,48.11,0,0,0,.53-6.33c0-.75-.34-2-.35-2.92-.35.79-.68,1.61-1,2.49a65.15,65.15,0,0,1-3,7l-.08.17c-.13.24-.24.48-.38.71a55.31,55.31,0,0,1-4.13,6.06c-5.39,7.19-11,14.21-16.6,21.26-5.58-14-15.37-26.36-23.37-39a20.24,20.24,0,0,1-1.57,6.23,30.32,30.32,0,0,1-5.19,7.17c-.72.78-1.47,1.53-2.24,2.24-.54.5-1.09,1-1.67,1.41l-.51.37,1.33,3.45a31.36,31.36,0,0,1,1.18,3.67c7.64,30.12,13.19,60.85,20,91.17l7.63-16.45c4.8-11.52,9.95-22.85,14.3-34.56a335.33,335.33,0,0,0,12.91-41.53A123.65,123.65,0,0,0,386.12,515.55ZM338.52,640l-.56-4.22-9.67-50.56-7.81-36.48-4.41-20.8-2.33,1a40.93,40.93,0,0,1-6,1.57,10,10,0,0,1-1.22.1,15.31,15.31,0,0,1-4.1-.51,48.49,48.49,0,0,1-6.25-2.16l-6.39,38.5-3.26,16.74-2.67,19L281,622.77l-1.63,12-.6,4.39v2.52l2.67,4.3.7,1.07L294.55,666,304,680.33l2.14,3.11.74,2.93.78-.89,2.93-3.34,10.14-13.74,8.52-11.85,7.11-10,1.45-3.22ZM329.23,495.5a5.3,5.3,0,0,0-1.62-4c-1.38-1.56-2.85-3.06-4.26-4.61l-4.61-4.77c-2.73-2.84-5.63-5.44-8.57-8.07a11.46,11.46,0,0,0-2.13-1.61,3.65,3.65,0,0,0-2.58-.39,5.16,5.16,0,0,0-1.6.86,72.57,72.57,0,0,0-8.25,7.11c-.8.77-1.59,1.54-2.37,2.32a91.6,91.6,0,0,0-6.32,6.9c-1.3,1.6-3.44,3.64-3,5.91a5.69,5.69,0,0,0,1.63,2.6c3,3.3,6,6.6,9.22,9.68a47.6,47.6,0,0,0,7,6,10.09,10.09,0,0,0,6.12,1.72,12.16,12.16,0,0,0,5.58-2.29c.35-.23.69-.47,1-.72h0a4.8,4.8,0,0,0,.86-.64l.24-.2c4.54-3.55,8.46-8.26,12-12.69A6.47,6.47,0,0,0,329.23,495.5Zm-41.42,25.32-.17-.14a62.78,62.78,0,0,1-7.29-7.91c-.15-.18-.64-.91-1.27-1.82-1.49-2.19-3.71-5.51-3.71-5.51l-.32.39a138.5,138.5,0,0,0-11.61,15.77,142.56,142.56,0,0,0-8.89,17.68c-.3.71-2.46,4.73-2.15,5.23q-8-12.59-15.81-25.25c-2.76-4.46-5.53-8.92-8.27-13.4,0,0,.8,6.09,1.23,9.18,3.21,22.92,11.23,45.14,19.94,66.49q4.9,12,10.67,23.71c2.86,5.78,5.4,11.57,7.87,17.53l1.26-7.77c2.89-19.58,6.37-39.07,10.18-58.49C281.83,544.49,283.7,532.32,287.81,520.82Z" transform="translate(-10.32 -13.46)"/><path class="cls-3" d="M552.32,515.14l33.49,22q-67,64.35-136.85,125.87c-18.63,16.39-37.48,32.62-57.71,47-17.36,12.37-35.87,22.14-54.33,32.67h0a529.94,529.94,0,0,0,62.54-58.49c8.68-9.64,17.09-19.51,25.36-29.51q10-12.12,19.83-24.43c8-10,15.33-20.53,22.94-30.8l21.12-31.77c5.91-9.4,11.8-18.81,17.84-28.13a2.33,2.33,0,0,0,.53-1.89c-.51-1.47-6.45-1.86-7.71-2-7.15-.71-10-1-16.64-1.7-4.06-.42-8.11-.89-12.14-1.56-2.1-.35-4.18-.76-6.26-1.24-1.49-.35-3.78-.61-4.73-2a1.14,1.14,0,0,1,.41-1.59c3.33-1.85,7.51-2.62,11.09-3.72q6.57-2,13.16-3.94a2.06,2.06,0,0,0,1.69-3,171,171,0,0,0-18-47.88l.13.08,48.45,26.26Z" transform="translate(-10.32 -13.46)"/><path class="cls-1" d="M569.25,100.55l-15,5.52L534,114l-22.89,8.22-19.92,7.71-19.44,5.87V125.39L540,101.63,475.75,82.17A7.37,7.37,0,0,0,475,78a8.07,8.07,0,0,0-2-2.16,28,28,0,0,0-12.36-6,24.43,24.43,0,0,0-12.13.49,29.38,29.38,0,0,0-4.93,2.11l-37-11.22L306.85,27.4l-227,73.3,109.93,39.79v30.8l.42,52.35c.18,22.94-.29,46.12,4.32,68.72,4.78,23.45,15.09,44.23,26.59,64.93l3,5.19,1.08,2.55-9.89,11c-12.13,12.59-24.38,25-35.5,38.51-8.8,10.69-16.53,23.58-24.35,34.9-.59.86-2.42,1.6-3.3,2.18l-3.92,2.54c-2.51,1.62-5.05,3.21-7.59,4.79q-7.62,4.73-15.35,9.27c-20.7,12.21-41.67,24-62.65,35.67l-9.27,5.18L21.89,529c-3.58-3.45-7.18-6.91-10.74-10.37l30.59-17L120,458l16.44-9.78,11.89-9.33,9-10.22,5.93-9.93,7.41-11.19L182,394.63l12.5-12.89,15.22-15,.91-1.52.3-1.3-.19-1.26-.67-2-7.48-12.07-9.48-20.45-7.78-20.44-4.66-17.23-1.34-10.11-1.11-20.22v-110l-.78-3L176,145.85l-2.89-.89-49.91-15.07-19.93-7.71L80.4,114l-20.22-7.89-15-5.52,34.67-13,55.71-18.37,79.11-25L278.4,22.63,306.74,14h.92L336,22.63l63.78,21.55,79.11,25,55.71,18.37Z" transform="translate(-10.32 -13.46)"/><path class="cls-4" d="M540,101.63l-68.22,23.76V111.58l13-3.84,19.31-5.69a.88.88,0,0,0,0-1.69l-30.7-9.23a39.89,39.89,0,0,0,2.34-8.69,2.45,2.45,0,0,1,0-.27Z" transform="translate(-10.32 -13.46)"/><path class="cls-5" d="M504.09,100.36a.88.88,0,0,1,0,1.69l-19.31,5.69-5.11.76-7.92,1.18v-8.83a25.76,25.76,0,0,1,.87-7.25c.23-.83.5-1.65.78-2.47Z" transform="translate(-10.32 -13.46)"/><path class="cls-6" d="M490.76,190.19c.11,10.14.07,20.28,0,30.42-.06,8.66.29,14.53-2.06,20.9-2.91,7.9-12.4,19.13-20.52,21.34-4.62,1.26-17-11.85-19.78-20.67-1-3-1.45-3.39-1.55-6.55-.49-14.89.07-29,.06-44,0-3,0-6,1-8.82,1.32-3.54,4.17-6.3,7.2-8.57a16.15,16.15,0,0,0,4.15-3.74c1.81-2.71,1.58-6.06,1.49-9.16-.12-4.17-.18-8.34-.23-12.52,0-3.21-.05-6.42-.05-9.63s0-6.58,0-9.86c0-2.44,0-4.89,0-7.33v-18.7c0-3,.37-6.38-1.19-9.09a10.88,10.88,0,0,0-3.84-3.6,27.26,27.26,0,0,0-7.47-3.24c-2.57-.68-5.26-1-7.63-2.2A7.22,7.22,0,0,1,436.34,80a4.44,4.44,0,0,1,1.05-3.6A9.08,9.08,0,0,1,440,74.5c.12-.08.25-.15.38-.22,1.1-.64,2.2-1.25,3.33-1.84a29.38,29.38,0,0,1,4.93-2.11,24.43,24.43,0,0,1,12.13-.49,28,28,0,0,1,12.36,6A8.07,8.07,0,0,1,475,78a7.37,7.37,0,0,1,.71,4.21,2.45,2.45,0,0,0,0,.27,39.89,39.89,0,0,1-2.34,8.69c-.28.82-.55,1.64-.78,2.47a25.76,25.76,0,0,0-.87,7.25V163.6a19.26,19.26,0,0,0,0,3.48c4,4.42,9.79,7.47,14.29,11.44a15.45,15.45,0,0,1,3.19,3.52C490.64,184.45,490.72,187.39,490.76,190.19Zm-12.39,8.34a27.22,27.22,0,0,0-.88-8.69,15.67,15.67,0,0,0-4.51-6.71c-1.91-1.7-3.44-4.28-6.17-3.75l-.13,0a11.62,11.62,0,0,0-8,7.36c-1.49,3.79-1.51,8-1.51,12l0,30.54a29.64,29.64,0,0,0,.68,7.76A21.06,21.06,0,0,0,462.2,245c1.36,1.61,4.22,6.07,6.66,4.46,2.84-1.88,4.81-5.34,6.6-8.15a16.7,16.7,0,0,0,2.5-5.1,17,17,0,0,0,.3-3.84Q478.26,215.44,478.37,198.53Z" transform="translate(-10.32 -13.46)"/><path class="cls-7" d="M477.49,189.84a27.22,27.22,0,0,1,.88,8.69q-.11,16.91-.11,33.81a17,17,0,0,1-.3,3.84,16.7,16.7,0,0,1-2.5,5.1c-1.79,2.81-3.76,6.27-6.6,8.15-2.44,1.61-5.3-2.85-6.66-4.46a21.06,21.06,0,0,1-4.42-7.86,29.64,29.64,0,0,1-.68-7.76l0-30.54c0-4.07,0-8.25,1.51-12a11.62,11.62,0,0,1,8-7.36l.13,0c2.73-.53,4.26,2.05,6.17,3.75A15.67,15.67,0,0,1,477.49,189.84Z" transform="translate(-10.32 -13.46)"/><path class="cls-8" d="M463.54,557.41a24.27,24.27,0,0,0,8.71-.44c-6.69,12.94-16.53,25.37-24.82,37.27q-13.92,20-29.18,39c-21.24,26.5-45,50.88-69.65,74.17-11.78,11.11-29.59,24.52-41.75,35.21-12.16-10.69-27-24.1-38.79-35.21-24.69-23.29-48.42-47.67-69.66-74.17q-9.57-12-18.62-24.31l0,0c-9.29-15.57-17.4-31.69-25.62-47.84-.41-.8-.81-1.81-.29-2.56a2.58,2.58,0,0,1,1.43-.82c8.11-2.54,16.05-5.62,23.88-8.92,3.92-1.65,7.81-3.35,11.7-5.07,3.3-1.46,7.19-2.45,10.15-4.54a4.92,4.92,0,0,0,2.42-3.42,3.24,3.24,0,0,0-.19-1.27l2.12-.83c4.34,10.9,7.5,22.14,11.21,33.24s7.68,22,12,32.77q4.2,10.4,8.88,20.6,7.45,16.15,16.16,31.68a231.33,231.33,0,0,0,21.55,32.16c7.54,9.31,15.91,16.67,24.94,24.28h0c2.21,3.06,4.43,6.11,6.69,9.14.28.39,2.48-2.32,5.61-6.59,4.19-3,8.83-5.76,12.37-9.54s7.1-7.8,10.47-11.87q4.18-5,8.09-10.28c1.85-2.48,3.82-5,5.46-7.64C359.39,654.72,370,638,379,620.19c19.94-39.75,34.93-83.85,39.54-128.25a228.82,228.82,0,0,0-.46-51.26,225,225,0,0,0-4.55-25.26c-.71-3-1.51-6-2.35-8.94,7.75,10,15.5,19.94,21.7,31,2.57,4.6,5,9.32,7.31,14.12,2,5,5.84,16.19,6.26,17.38a305,305,0,0,1,9.28,32.47,6.35,6.35,0,0,1,.09,3.66,7,7,0,0,1-2.43,2.53c-3.22,2.55-6.71,4.78-10,7.26L433.71,522h0q-4.44,2.64-8.83,5.36a47.24,47.24,0,0,0-5.16,2.64,23.4,23.4,0,0,0-4.38,3.3c-.51.49-1,1.16-.81,1.84,0,.13.31.25.71.37,3.82,5.08,11.17,8.09,16.74,10.55q10.3,4.56,20.9,8.38A56,56,0,0,0,463.54,557.41Z" transform="translate(-10.32 -13.46)"/><path class="cls-5" d="M459.36,94.17c1.56,2.71,1.19,6.08,1.19,9.09v8.13c-9,1.44-18,3-26.92,5.15-17.32,4.08-34.38,9.15-51.43,14.22l-57.71,17.15a91.52,91.52,0,0,0-17.32,7.47v-1.64l-.35-47.62a23.44,23.44,0,0,0,3.14.07,33.08,33.08,0,0,0,6.9-1.23c6.66-1.79,13-4.53,19.4-7a119.36,119.36,0,0,1,15-4.62,16.36,16.36,0,0,1,3.48-.46l5.87-.17-2.37-.43-7-1-4.89-1.18c-4.86-1.23-9.58-2.6-14.37-4.14l-9.5-3-4.75-1.52c-1.2-.39-3-1.36-4.22-1.36a28.2,28.2,0,0,0-4.68-1.2,13.4,13.4,0,0,0-2.19-.11v-.13c0-.5,0-1,0-1.5,0-1,0-1.93,0-2.9l0-4,0-4.74c0-1.73,0-3.45,0-5.18s0-3.52,0-5.28,0-3.38,0-5.07l0-4.53,0-3.66c0-.47,0-.94,0-1.41s0-1,0-1.5a16.49,16.49,0,0,1,.31-2.19l.37.66a.88.88,0,0,0,.48.41L383.22,64l53.12,16a7.22,7.22,0,0,0,4.08,5.13c2.37,1.2,5.06,1.52,7.63,2.2a27.26,27.26,0,0,1,7.47,3.24A10.88,10.88,0,0,1,459.36,94.17Z" transform="translate(-10.32 -13.46)"/><path class="cls-4" d="M460.55,114.88V122c0,2.44,0,4.89,0,7.33l-39.12,13.62-11.55,4-5.8,2L310.36,181.6l-.18.06-3.41,1.19-.37-.14h0l-89.8-32.5L203,145.29l-1-.37-.15,0-12.11-4.38L79.81,100.7l227-73.3,99.78,33.82,37,11.22c-1.13.59-2.23,1.2-3.33,1.84-.13.07-.26.14-.38.22a9.08,9.08,0,0,0-2.56,1.9,4.44,4.44,0,0,0-1.05,3.6L383.22,64,307.5,37.74a.88.88,0,0,1-.48-.41l-.37-.66-.76-1.38-.37.12-1.06.35-1.73.56c-45.37,14.83-90.45,30.34-136,44.7q-13.05,4.13-26.06,8.36l-13.26,4.34-1.1.36a18.13,18.13,0,0,1-3.42,1,11,11,0,0,1-1.28.05h-8.9a12.94,12.94,0,0,0-2,.1,9.6,9.6,0,0,0-3.41,1.41.88.88,0,0,0-.11,1.43,8.38,8.38,0,0,0,2.5,1.25,2.8,2.8,0,0,1,.71.27l.84.31,1.62.59,3.25,1.19c1.22.46,2.45.93,3.69,1.32l1.89.61,2.68.86,3.39,1.08,4.06,1.3,4.64,1.49,5.16,1.65,5.61,1.79,6,1.93,6.32,2,6.58,2.11L173,120l6.89,2.21,6.94,2.22,6.93,2.21,6.85,2.2,6.7,2.14,6.49,2.08,6.21,2,5.86,1.87,5.46,1.75,5,1.59,4.42,1.41,3.82,1.22,3.13,1,2.38.76,1.57.5.7.22s0,0,0,0l29.34,10.23,7.74,3a59.12,59.12,0,0,1,10.65,5c1.11.71,2.19,1.46,3.3,2.15.78.49,1.85,1.36,2.81,1.32a2.69,2.69,0,0,0,1.06-.34c1.8-.87,3.32-2.13,5-3.16l.28-.18a29,29,0,0,1,4.79-1.86l10.14-3.61,7.93-2.82.73-.26,46.11-15.11,63.41-20.45Z" transform="translate(-10.32 -13.46)"/><path class="cls-9" d="M460.55,111.39v3.49l-15,4.41-63.41,20.45-46.11,15.11-.73.26-7.93,2.82-10.14,3.61a29,29,0,0,0-4.79,1.86l-.28.18c-1.88-.78-3.56-1.09-4.93-2.77l-.1-.13a3,3,0,0,1-.63-1.28c-.13-.65.41-1.85.63-2.84a2,2,0,0,0,0-1.18,91.52,91.52,0,0,1,17.32-7.47l57.71-17.15c17.05-5.07,34.11-10.14,51.43-14.22C442.57,114.43,451.54,112.83,460.55,111.39Z" transform="translate(-10.32 -13.46)"/><path class="cls-10" d="M418.05,440.68a228.82,228.82,0,0,1,.46,51.26c-4.61,44.4-19.6,88.5-39.54,128.25-8.94,17.81-19.58,34.53-30.12,51.4-1.64,2.63-3.61,5.16-5.46,7.64q-3.9,5.25-8.09,10.28-5.06,6.11-10.47,11.87c-3.54,3.78-8.18,6.52-12.37,9.54,8.8-12,24.94-36.39,26.57-39.31,22-39.43,41.69-80.34,54.82-123.52q2.43-8,4.58-16.06c1.45-5.46,2.81-10.95,4-16.46s2.38-11.15,3.37-16.77,1.87-11.28,2.58-17,1.27-11.35,1.65-17,.6-11.37.61-17.05-.17-11.3-.57-16.94-1-11.18-1.87-16.73c-.32-2.08-.64-4.17-1-6.25a28.36,28.36,0,0,1-.82-6.21,14.63,14.63,0,0,1,.76-3.67l1.67,1.84.75.82c.17.87.35,1.71.56,2.42.35,1.15.66,2.3,1,3.46.84,3,1.64,5.94,2.35,8.94A225,225,0,0,1,418.05,440.68Z" transform="translate(-10.32 -13.46)"/><path class="cls-11" d="M409.87,146.94v45.35c-20.32,8.11-40.38,16.54-60.2,25.89L326.73,229c-6.78,3.2-14.42,5.85-20.36,10.42v-9.15c6.48-2.48,12.82-5.82,19-8.72,13.15-6.18,25.53-13.74,39-19.17,6.65-2.67,13.42-5,20.23-7.2,1.91-.61,19.43-5.13,19.43-5.91V149Z" transform="translate(-10.32 -13.46)"/><path class="cls-1" d="M409.85,234c0,13,.86,26.1-.22,39.06-.87,10.4-3.89,20.49-7,30.4-1.6,5-3.28,10-5.08,14.95-5.61,15.41-12.43,30.46-21.39,44.24a95.62,95.62,0,0,1-33.79,31.11,107.65,107.65,0,0,1-35,11.94,121.43,121.43,0,0,1-39.85-14.77c-11.63-6.87-20.69-16-28.92-26.59a135.74,135.74,0,0,1-11.06-16.81,217.76,217.76,0,0,1-16-36.9c-7-20.73-8.94-41.73-8.68-63.44q.21-17.1.41-34.19l8.31,4.78,1,.59c0,1.82-.06,3.65-.08,5.47-.25,17.25-.94,34.39,1.55,51.53a194.7,194.7,0,0,0,20.47,62.84A138.32,138.32,0,0,0,247.85,359a107.34,107.34,0,0,0,26.53,24.26A84.91,84.91,0,0,0,291,391.54c4.6,1.67,11,4.3,16.06,4.41.37,0,.73,0,1.09,0a16.7,16.7,0,0,0,4-.9c16.35-5.1,32.81-12.05,45.71-23.57a108.89,108.89,0,0,0,25-33.22,200.62,200.62,0,0,0,7.79-18.75C396.1,305,402.18,290,404.81,274.65a127.76,127.76,0,0,0,1.57-20.21c0-2.39,0-4.79,0-7.18,0-1.46-.41-2.87-.43-4.33C405.88,239.44,408.2,236.82,409.85,234Z" transform="translate(-10.32 -13.46)"/><path class="cls-12" d="M404.07,149v40.33c0,.78-17.52,5.3-19.43,5.91-6.81,2.19-13.58,4.53-20.23,7.2-13.5,5.43-25.88,13-39,19.17-6.19,2.9-12.53,6.24-19,8.72v-1.13l0-38.94v-7.51l.37.14,3.41-1.19.18-.06Z" transform="translate(-10.32 -13.46)"/><path class="cls-13" d="M395.16,439.67c0,9.28.42,18.64-.09,27.91-.28,5-.85,10.6-2.86,15.31-.28.65-.59,1.29-.92,1.9-2.49,4.54-5.22,9-8.11,13.42-4.05,6.15-8.42,12.13-12.93,17.77-2.64,3.3-5.54,6.43-8.29,9.65.44-.52-2.56-6.35-2.91-7.14q-1.6-3.66-3.39-7.23c-2.39-4.79-5-9.42-7.79-14-.35-.58-.71-1.16-1.06-1.75-7.52-12.36-16.38-25-28.16-33.53-.88-.65-9-7.47-10.95-8.68,20.66-9.84,40.91-20.74,57.73-36.55,13.19-12.4,21.82-27.3,24.37-44.93l1.52,2.61c1.2,2.53,2.1,8.29,2.78,13a124.55,124.55,0,0,1,1,12.92c.09,4.11,0,8.21,0,12.31Z" transform="translate(-10.32 -13.46)"/><path class="cls-14" d="M386.65,509.22a48.11,48.11,0,0,1-.53,6.33,123.65,123.65,0,0,1-2.21,12.54A335.33,335.33,0,0,1,371,569.62c-4.35,11.71-9.5,23-14.3,34.56l-7.63,16.45c-6.85-30.32-12.4-61-20-91.17a31.36,31.36,0,0,0-1.18-3.67l-1.33-3.45L327,522c.58-.44,1.13-.91,1.67-1.41a162.82,162.82,0,0,1,12.15,11.78c6.2,6.78,11.21,14.58,17.11,21.62l.67.47a125.72,125.72,0,0,0,9.29-13.28q4.77-7.47,9.18-15.18c.69-1.2,1.36-2.42,2-3.64,0,0,2.56-5.36,3-6.4l.08-.17a65.15,65.15,0,0,0,3-7c.34-.88.67-1.7,1-2.49C386.31,507.26,386.64,508.47,386.65,509.22Z" transform="translate(-10.32 -13.46)"/><path class="cls-15" d="M381.8,516.64c.14-.23.25-.47.38-.71-.48,1-3,6.4-3,6.4-.68,1.22-1.35,2.44-2,3.64q-4.41,7.69-9.18,15.18a125.72,125.72,0,0,1-9.29,13.28L358,554c-5.9-7-10.91-14.84-17.11-21.62a162.82,162.82,0,0,0-12.15-11.78c.77-.71,1.52-1.46,2.24-2.24a30.32,30.32,0,0,0,5.19-7.17,20.24,20.24,0,0,0,1.57-6.23c8,12.68,17.79,25.08,23.37,39,5.59-7.05,11.21-14.07,16.6-21.26A55.31,55.31,0,0,0,381.8,516.64Z" transform="translate(-10.32 -13.46)"/><path class="cls-16" d="M360.63,92.7l-5.87.17a16.36,16.36,0,0,0-3.48.46,119.36,119.36,0,0,0-15,4.62c-6.41,2.48-12.74,5.22-19.4,7a33.08,33.08,0,0,1-6.9,1.23,23.44,23.44,0,0,1-3.14-.07c-7.53-.64-14.58-4.68-21.81-7.27-7.66-2.74-15.49-3.41-23.52-3.71,3.89-.79,7.9-1.28,11.74-2.28a67.24,67.24,0,0,0,16.87-7.5A76.1,76.1,0,0,1,299,80.52a20.65,20.65,0,0,1,7.66-1.78,13.4,13.4,0,0,1,2.19.11,28.2,28.2,0,0,1,4.68,1.2c1.26,0,3,1,4.22,1.36l4.75,1.52,9.5,3c4.79,1.54,9.51,2.91,14.37,4.14l4.89,1.18,7,1Z" transform="translate(-10.32 -13.46)"/><path class="cls-17" d="M338,635.74l.56,4.22-.67,3.33-1.45,3.22-7.11,10-8.52,11.85-10.14,13.74-2.93,3.34V670.7a76,76,0,0,1,6.85-8.7l11.73-12.08c1.67-1.72,3.4-3.54,4.06-5.85a14.35,14.35,0,0,0,.13-5.43q-2.16-20.6-6.06-41a418,418,0,0,0-13.35-52.42c-1.07-3.26-2.18-6.52-3.36-9.76v-5a40.93,40.93,0,0,0,6-1.57l2.33-1,4.41,20.8,7.81,36.48Z" transform="translate(-10.32 -13.46)"/><path class="cls-18" d="M330.47,638.64a14.35,14.35,0,0,1-.13,5.43c-.66,2.31-2.39,4.13-4.06,5.85L314.55,662a76,76,0,0,0-6.85,8.7V535.49c1.18,3.24,2.29,6.5,3.36,9.76a418,418,0,0,1,13.35,52.42Q328.29,618,330.47,638.64Z" transform="translate(-10.32 -13.46)"/><path class="cls-19" d="M308.37,512.53c1-1,2.48-2.55,2.84-2.76a15.9,15.9,0,0,0,2.88-2.3q3.21-3.06,6.31-6.23,1.55-1.59,3-3.23a13.17,13.17,0,0,0,2.48-3,2.68,2.68,0,0,0-.26-2.69,1.65,1.65,0,0,0-.4-.39,2,2,0,0,0-.81-.33,2.85,2.85,0,0,0-.49-.06c-1.47-.07-2.52.92-3.51,2l-11.17,11.67a8.81,8.81,0,0,0-1.18,1.42,15.62,15.62,0,0,1-1.56,1.57V508a2.64,2.64,0,0,1,.41-1.73,5.34,5.34,0,0,0,.61-.65,1.63,1.63,0,0,0,.14-.85c0-6.64-.09-13.3.17-19.94A2,2,0,0,1,308,484a1.92,1.92,0,0,1,.42-.52c.81-.81,1.92-1.51,2.64-2.39.37-.45.75-1.57.62-1.67-6,4.43-11.57,9.4-17.7,13.7a6.25,6.25,0,0,1-2.63,1.27c-.57.08-1.15,0-1.72.07a1.64,1.64,0,0,0-1.37.91c-.25.7.29,1.43.8,2,2.71,3,5.63,5.73,8.54,8.49a35.34,35.34,0,0,0,5.33,4.45,17.59,17.59,0,0,0,2.66,1.37l.62.27h0A6.58,6.58,0,0,0,308.37,512.53Zm6.14-.38c-.34.25-.68.49-1,.72a12.16,12.16,0,0,1-5.58,2.29,10.09,10.09,0,0,1-6.12-1.72,47.6,47.6,0,0,1-7-6c-3.23-3.08-6.21-6.38-9.22-9.68a5.69,5.69,0,0,1-1.63-2.6c-.44-2.27,1.7-4.31,3-5.91a91.6,91.6,0,0,1,6.32-6.9c.78-.78,1.57-1.55,2.37-2.32a72.57,72.57,0,0,1,8.25-7.11,5.16,5.16,0,0,1,1.6-.86,3.65,3.65,0,0,1,2.58.39,11.46,11.46,0,0,1,2.13,1.61c2.94,2.63,5.84,5.23,8.57,8.07l4.61,4.77c1.41,1.55,2.88,3.05,4.26,4.61a5.3,5.3,0,0,1,1.62,4,6.47,6.47,0,0,1-1.63,3.11c-3.51,4.43-7.43,9.14-12,12.69l-.24.2c-.28.22-.57.43-.86.64Z" transform="translate(-10.32 -13.46)"/><path class="cls-20" d="M325.66,492.32a2.68,2.68,0,0,1,.26,2.69,13.17,13.17,0,0,1-2.48,3q-1.5,1.64-3,3.23-3.09,3.18-6.31,6.23a15.9,15.9,0,0,1-2.88,2.3c-.36.21-1.8,1.77-2.84,2.76a6.58,6.58,0,0,1-2.17-.55h0l.35.14c0-1.31,0-2.63,0-3.95a15.62,15.62,0,0,0,1.56-1.57,8.81,8.81,0,0,1,1.18-1.42l11.17-11.67c1-1,2-2,3.51-2a2.85,2.85,0,0,1,.49.06,2,2,0,0,1,.81.33A1.65,1.65,0,0,1,325.66,492.32Z" transform="translate(-10.32 -13.46)"/><path class="cls-21" d="M311.68,479.46c.13.1-.25,1.22-.62,1.67-.72.88-1.83,1.58-2.64,2.39a1.92,1.92,0,0,0-.42.52,2,2,0,0,0-.13.78c-.26,6.64-.18,13.3-.17,19.94a1.63,1.63,0,0,1-.14.85,5.34,5.34,0,0,1-.61.65,2.64,2.64,0,0,0-.41,1.73v.17c0,1.32,0,2.64,0,3.95l-.35-.14-.62-.27a17.59,17.59,0,0,1-2.66-1.37,35.34,35.34,0,0,1-5.33-4.45c-2.91-2.76-5.83-5.53-8.54-8.49-.51-.55-1.05-1.28-.8-2a1.64,1.64,0,0,1,1.37-.91c.57-.07,1.15,0,1.72-.07a6.25,6.25,0,0,0,2.63-1.27C300.11,488.86,305.69,483.89,311.68,479.46Z" transform="translate(-10.32 -13.46)"/><path class="cls-22" d="M307.27,160.81c1.37,1.68,3.05,2,4.93,2.77-1.69,1-3.21,2.29-5,3.16a2.69,2.69,0,0,1-1.06.34c-1,0-2-.83-2.81-1.32-1.11-.69-2.19-1.44-3.3-2.15a59.12,59.12,0,0,0-10.65-5l-7.74-3L252.29,145.4s0,0,0,0l-.7-.22-1.57-.5-2.38-.76-3.13-1-3.82-1.22-4.42-1.41-5-1.59-5.46-1.75L220,135.06l-6.21-2L207.26,131l-6.7-2.14-6.85-2.2-6.93-2.21-6.94-2.22L173,120l-6.77-2.16-6.58-2.11-6.32-2-6-1.93L141.66,110l-5.16-1.65-4.64-1.49-4.06-1.3-3.39-1.08-2.68-.86-1.89-.61c-1.24-.39-2.47-.86-3.69-1.32l-3.25-1.19-1.62-.59-.84-.31a2.8,2.8,0,0,0-.71-.27,8.38,8.38,0,0,1-2.5-1.25.88.88,0,0,1,.11-1.43,9.6,9.6,0,0,1,3.41-1.41,12.94,12.94,0,0,1,2-.1h4c2.27.8,4,2.19,6.43,2.89,3.33,1,6.67,1.94,10,2.91l20,5.81,19.56,5.69C207.58,122.61,242.41,133,277,144.25q9.9,3.21,19.76,6.53a73.4,73.4,0,0,1,6.84,2.75,18.51,18.51,0,0,1,3.4,1.59.73.73,0,0,1,.2.26v1.18c-.22,1-.76,2.19-.63,2.84a3,3,0,0,0,.63,1.28Z" transform="translate(-10.32 -13.46)"/><path class="cls-23" d="M307.7,670.7v14.78l-.78.89-.74-2.93L304,680.33,294.55,666,282.14,647l0,0a9.79,9.79,0,0,0,1.55-1,12.27,12.27,0,0,0,2.74-3.71v1.12l.94,1,3.84,3.83,4.89,4.67,7.91,8,1.81,2.11,1.85,2.43Z" transform="translate(-10.32 -13.46)"/><path class="cls-24" d="M307.7,535.49v130l-1.85-2.43L304,661l-7.91-8-4.89-4.67-3.84-3.83-.94-1v-1.33l.44-3.73,1.49-8.75,2.35-13.86,5.66-40L301.14,542l1.23-11.86v0a15.31,15.31,0,0,0,4.1.51,10,10,0,0,0,1.22-.1v5Z" transform="translate(-10.32 -13.46)"/><path class="cls-25" d="M307.17,153.74v1.64a.73.73,0,0,0-.2-.26,18.51,18.51,0,0,0-3.4-1.59,73.4,73.4,0,0,0-6.84-2.75q-9.87-3.32-19.76-6.53C242.41,133,207.58,122.61,172.7,112.44l-19.56-5.69-20-5.81c-3.34-1-6.68-1.93-10-2.91-2.41-.7-4.16-2.09-6.43-2.89h4.94a11,11,0,0,0,1.28-.05,18.13,18.13,0,0,0,3.42-1l1.1-.36,13.26-4.34q13-4.26,26.06-8.36c45.54-14.36,90.62-29.87,136-44.7l1.73-.56,1.06-.35.37-.12.76,1.38a16.49,16.49,0,0,0-.31,2.19c0,.5,0,1,0,1.5s0,.94,0,1.41l0,3.66,0,4.53c0,1.69,0,3.38,0,5.07s0,3.52,0,5.28,0,3.45,0,5.18l0,4.74,0,4c0,1,0,1.94,0,2.9,0,.5,0,1,0,1.5v.13A20.65,20.65,0,0,0,299,80.52a76.1,76.1,0,0,0-8.86,4.84,67.24,67.24,0,0,1-16.87,7.5c-3.84,1-7.85,1.49-11.74,2.28,8,.3,15.86,1,23.52,3.71,7.23,2.59,14.28,6.63,21.81,7.27Z" transform="translate(-10.32 -13.46)"/><path class="cls-26" d="M307.07,262V396c-5.09-.11-11.46-2.74-16.06-4.41a84.91,84.91,0,0,1-16.63-8.29A107.34,107.34,0,0,1,247.85,359a138.32,138.32,0,0,1-13.28-20.82,194.7,194.7,0,0,1-20.47-62.84c-2.49-17.14-1.8-34.28-1.55-51.53,0-1.82,0-3.65.08-5.47l-1-.59c1.08.37,2.17.72,3.26,1,.6.54,1.1,1,1.2,1.11a33.35,33.35,0,0,0,5.47,4.6,37,37,0,0,0,3.27,1.79q12.25,6.17,24.62,12.12c15.71,7.56,31.3,15.11,47.85,20.74C300.53,260.26,303.76,261.13,307.07,262Z" transform="translate(-10.32 -13.46)"/><path class="cls-27" d="M307.07,258.4V262c-3.31-.82-6.54-1.69-9.8-2.8-16.55-5.63-32.14-13.18-47.85-20.74q-12.36-5.94-24.62-12.12a37,37,0,0,1-3.27-1.79,33.35,33.35,0,0,1-5.47-4.6c-.1-.1-.6-.57-1.2-1.11,1.16.34,2.32.65,3.51.9,5.36,1.12,10.31,3.6,15.17,6.05l24.53,12.33c15.27,7.68,31,14.73,47.29,20l1,.32Z" transform="translate(-10.32 -13.46)"/><path class="cls-28" d="M306.4,190.11v.11l0,38.94-1.13-.65-3-1a190.36,190.36,0,0,1-20.5-8q-17.4-7.72-35.11-14.73c-10-4-20.73-7.09-29.89-12.93-.85-.54-2.71-1.18-3.34-2l-1.11-1.37-.52-1.82-.17-2.18V158.25c2.34,1,4.78,1.8,7.15,2.69l6.92,2.62,12.85,4.84,37.33,13.11,20.57,7.56a27.19,27.19,0,0,0,4.89,1.46,9.25,9.25,0,0,0,5-.42Z" transform="translate(-10.32 -13.46)"/><path class="cls-29" d="M306.4,182.71v7.4h-.06a9.25,9.25,0,0,1-5,.42,27.19,27.19,0,0,1-4.89-1.46l-20.57-7.56L238.52,168.4l-12.85-4.84-6.92-2.62c-2.37-.89-4.81-1.7-7.15-2.69-.38-.16-.75-.31-1.12-.48a12.35,12.35,0,0,1-6-5.15c-1.17-2.25-1.3-4.85-1.47-7.33l13.55,4.91,89.8,32.5Z" transform="translate(-10.32 -13.46)"/><path class="cls-30" d="M306.37,230.29v9.15l-17.08-7.55-32.22-13.71L232.18,208l-24.33-10.67-6-3.22V145.35l.15-.43,1,.37c.17,2.48.3,5.08,1.47,7.33a12.35,12.35,0,0,0,6,5.15c.37.17.74.32,1.12.48v26.23l.17,2.18.52,1.82,1.11,1.37c.63.77,2.49,1.41,3.34,2,9.16,5.84,19.85,8.94,29.89,12.93q17.7,7,35.11,14.73a190.36,190.36,0,0,0,20.5,8l3,1,1.13.65Z" transform="translate(-10.32 -13.46)"/><path class="cls-31" d="M302.38,530.06v0L301.14,542l-4.74,33.78-5.66,40-2.35,13.86-1.49,8.75-.44,3.73v.21a12.27,12.27,0,0,1-2.74,3.71,9.79,9.79,0,0,1-1.55,1l0,0-.7-1.07-2.67-4.3v-2.52l.6-4.39,1.63-12,2.81-20.66,2.67-19,3.26-16.74,6.39-38.5A48.49,48.49,0,0,0,302.38,530.06Z" transform="translate(-10.32 -13.46)"/><path class="cls-32" d="M300.16,708.37h0c-9-7.61-17.4-15-24.94-24.28a231.33,231.33,0,0,1-21.55-32.16q-8.7-15.52-16.16-31.68-4.68-10.2-8.88-20.6-6.54-16.18-12-32.77c-3.71-11.1-6.87-22.34-11.21-33.24l-.09-.23a15.74,15.74,0,0,1-.8-4.84q-.37-5.75-1.21-11.45c-1.71-11.69-3.8-23.26-4.94-35.05a306.41,306.41,0,0,1-1.46-35.84c.25-12.06,1.72-23.27,6.07-33.68a63.82,63.82,0,0,1,6.75-12.15c-6.5,74.9,6.38,149.48,37.42,218.52C261.42,650.75,279.81,680.19,300.16,708.37Z" transform="translate(-10.32 -13.46)"/><path class="cls-33" d="M307.7,453.3c-14.27,10.57-26.73,24.19-37.53,38.87a303,303,0,0,0-19,29.34c.31-.53-7.14-9-7.42-9.28a132.27,132.27,0,0,1-14.11-18.68c-1.31-2.17-2.52-4.39-3.63-6.68-.36-.75-.68-1.53-1-2.3-7.06-16.67-6.17-37.81-5.62-55.48.26-8.49.58-17,1.18-25.49q.49-6.77,1.16-13.51a100,100,0,0,1,1.77-11.71A16.67,16.67,0,0,1,224.6,376c-.12,1.57,1.1,6.76,1.67,8.22a85.8,85.8,0,0,0,15.64,25.22c6.83,7.75,15.18,14,23.59,19.87l.58.4C279,438.8,293.67,446.17,307.7,453.3Z" transform="translate(-10.32 -13.46)"/><path class="cls-34" d="M287.64,520.68l.17.14c-4.11,11.5-6,23.67-8.34,35.69-3.81,19.42-7.29,38.91-10.18,58.49L268,622.77c-2.47-6-5-11.75-7.87-17.53q-5.76-11.67-10.67-23.71C240.78,560.18,232.76,538,229.55,515c-.43-3.09-1.23-9.18-1.23-9.18,2.74,4.48,5.51,8.94,8.27,13.4.58,2.66,1.17,5.32,1.9,7.94,2.52,8.94,7.41,18.11,15.4,23.27.29.19,4.11,2.77,4.17,2.67l1.65-2.63c1.75-2.8,3.51-5.58,5.26-8.39q4.61-7.41,8.62-15.16a58.65,58.65,0,0,0,4.13-10.66c.51-1.77,1-3.56,1.36-5.35.63.91,1.12,1.64,1.27,1.82A62.78,62.78,0,0,0,287.64,520.68Z" transform="translate(-10.32 -13.46)"/><path class="cls-35" d="M279.08,511c-.4,1.79-.85,3.58-1.36,5.35-3.1,4.93-6.14,9.9-9,15-2.77,4.9-5.9,10.06-7.7,15.39-.43,1.29-.92,2.55-1.31,3.85l-1.65,2.63c-.06.1-3.88-2.48-4.17-2.67-8-5.16-12.88-14.33-15.4-23.27-.73-2.62-1.32-5.28-1.9-7.94q7.84,12.66,15.81,25.25c-.31-.5,1.85-4.52,2.15-5.23a142.56,142.56,0,0,1,8.89-17.68,138.5,138.5,0,0,1,11.61-15.77l.32-.39S277.59,508.76,279.08,511Z" transform="translate(-10.32 -13.46)"/><path class="cls-3" d="M217.2,684.25a542.83,542.83,0,0,0,62.17,58.5c-18.46-10.53-37.1-20.3-54.46-32.67-20.23-14.41-39.08-30.64-57.71-47-46.58-41-92.41-83.16-137.17-126.16l33-21.75,35.78-19.7,48.44-26.26,2-1.18a170.75,170.75,0,0,0-18.59,49,2.71,2.71,0,0,0,.15,2.17,2.76,2.76,0,0,0,1.53.84q6.6,1.93,13.17,3.94c3.59,1.1,7.78,1.88,11.12,3.74a1.11,1.11,0,0,1,.33,1.62c-1,1.35-3.21,1.6-4.69,2q-3.11.72-6.26,1.24c-4,.67-8.08,1.14-12.14,1.56-6.65.7-9.49,1-16.64,1.7-1.25.12-7.2.51-7.7,2a2.3,2.3,0,0,0,.53,1.89c6,9.32,11.93,18.73,17.84,28.13l21.11,31.77c7.61,10.27,15,20.82,22.94,30.8q9.84,12.29,19.84,24.43C200.11,664.74,208.52,674.61,217.2,684.25Z" transform="translate(-10.32 -13.46)"/><path class="cls-36" d="M210.08,395.94c-.15,1.49-.27,3-.4,4.46a63.82,63.82,0,0,0-6.75,12.15,204.23,204.23,0,0,0-31.07,54.26A291.26,291.26,0,0,0,161,502.56a4.54,4.54,0,0,0-.11,2.55,4,4,0,0,0,.93,1.38c3.5,3.85,8.11,6.4,12.72,8.69a144.26,144.26,0,0,1,14.44,7.9c3.73,2.41,7.31,5,10.87,7.65l-.57.77A26.56,26.56,0,0,0,197,530c-6.44-3.84-14.18-5.91-21.17-8.56l-10.16-3.87c-5-1.94-10.06-3.94-15-6.11a3.61,3.61,0,0,1-2.6-5.3q.75-2.62,1.58-5.22c3.47-11.11,7.7-22,12-32.8.88-2.21,1.76-4.41,2.63-6.62.77-1.91,1.61-3.8,2.56-5.63A223.93,223.93,0,0,1,186.23,424c.57-.76,1.12-1.53,1.71-2.28,4.71-6.09,9.66-12,14.76-17.68C205.12,401.32,207.58,398.61,210.08,395.94Z" transform="translate(-10.32 -13.46)"/><path class="cls-8" d="M205.27,533.41l.09.23-2.12.83a4.25,4.25,0,0,0-.5-1,11,11,0,0,0-2.73-2.58l-.21-.16c-3.56-2.64-7.14-5.24-10.87-7.65a144.26,144.26,0,0,0-14.44-7.9c-4.61-2.29-9.22-4.84-12.72-8.69a4,4,0,0,1-.93-1.38,4.54,4.54,0,0,1,.11-2.55,291.26,291.26,0,0,1,10.91-35.75,204.23,204.23,0,0,1,31.07-54.26c-4.35,10.41-5.82,21.62-6.07,33.68a306.41,306.41,0,0,0,1.46,35.84c1.14,11.79,3.23,23.36,4.94,35.05q.84,5.7,1.21,11.45A15.74,15.74,0,0,0,205.27,533.41Z" transform="translate(-10.32 -13.46)"/><path class="cls-36" d="M203.24,534.47a3.24,3.24,0,0,1,.19,1.27,4.92,4.92,0,0,1-2.42,3.42c-3,2.09-6.85,3.08-10.15,4.54-3.89,1.72-7.78,3.42-11.7,5.07-7.83,3.3-15.77,6.38-23.88,8.92a2.58,2.58,0,0,0-1.43.82c-.52.75-.12,1.76.29,2.56,8.22,16.15,16.33,32.27,25.62,47.84q-5.35-7.27-10.54-14.67c-8.65-12.42-19-25.4-25.68-39-.43-.87-.79-2-.24-2.76a3,3,0,0,1,1.6-.95l.39-.12c8.66-2.81,17.4-5.39,26.1-8.07L185.53,539c1.65-.51,3.36-.93,5-1.53a28.07,28.07,0,0,1,5.26-1.09c.75-.12,6.17-.67,6.37-1.29s-.31-1.35-.82-1.84a22.08,22.08,0,0,0-2.09-1.78l.57-.77.21.16a11,11,0,0,1,2.73,2.58A4.25,4.25,0,0,1,203.24,534.47Z" transform="translate(-10.32 -13.46)"/><path class="cls-37" d="M307.07,396c-5.09-.11-11.46-2.74-16.06-4.41a84.91,84.91,0,0,1-16.63-8.29A107.34,107.34,0,0,1,247.85,359a138.32,138.32,0,0,1-13.28-20.82,194.7,194.7,0,0,1-20.47-62.84c-2.49-17.14-1.8-34.28-1.55-51.53,0-1.82,0-3.65.08-5.47l-1-.59" transform="translate(-10.32 -13.46)"/><path class="cls-37" d="M211.6,217.74c1.08.37,2.17.72,3.26,1" transform="translate(-10.32 -13.46)"/><line class="cls-37" x1="296.75" y1="382.49" x2="296.75" y2="248.49"/><path class="cls-37" d="M307.07,262V258.4h-.7l-1-.32c-16.27-5.28-32-12.33-47.29-20l-24.53-12.33c-4.86-2.45-9.81-4.93-15.17-6.05-1.19-.25-2.35-.56-3.51-.9" transform="translate(-10.32 -13.46)"/><path class="cls-37" d="M307.07,262c-3.31-.82-6.54-1.69-9.8-2.8-16.55-5.63-32.14-13.18-47.85-20.74q-12.36-5.94-24.62-12.12a37,37,0,0,1-3.27-1.79,33.35,33.35,0,0,1-5.47-4.6c-.1-.1-.6-.57-1.2-1.11" transform="translate(-10.32 -13.46)"/><path class="cls-37" d="M314.53,512.14c.29-.21.58-.42.86-.64l.24-.2c4.54-3.55,8.46-8.26,12-12.69a6.47,6.47,0,0,0,1.63-3.11,5.3,5.3,0,0,0-1.62-4c-1.38-1.56-2.85-3.06-4.26-4.61l-4.61-4.77c-2.73-2.84-5.63-5.44-8.57-8.07a11.46,11.46,0,0,0-2.13-1.61,3.65,3.65,0,0,0-2.58-.39,5.16,5.16,0,0,0-1.6.86,72.57,72.57,0,0,0-8.25,7.11c-.8.77-1.59,1.54-2.37,2.32a91.6,91.6,0,0,0-6.32,6.9c-1.3,1.6-3.44,3.64-3,5.91a5.69,5.69,0,0,0,1.63,2.6c3,3.3,6,6.6,9.22,9.68a47.6,47.6,0,0,0,7,6,10.09,10.09,0,0,0,6.12,1.72,12.16,12.16,0,0,0,5.58-2.29c.35-.23.69-.47,1-.72" transform="translate(-10.32 -13.46)"/><path class="cls-37" d="M306.54,508.16c0,1.32,0,2.64,0,3.95l-.35-.14-.62-.27" transform="translate(-10.32 -13.46)"/><path class="cls-37" d="M306.54,508.16V508a2.64,2.64,0,0,1,.41-1.73,5.34,5.34,0,0,0,.61-.65,1.63,1.63,0,0,0,.14-.85c0-6.64-.09-13.3.17-19.94A2,2,0,0,1,308,484a1.92,1.92,0,0,1,.42-.52c.81-.81,1.92-1.51,2.64-2.39.37-.45.75-1.57.62-1.67-6,4.43-11.57,9.4-17.7,13.7a6.25,6.25,0,0,1-2.63,1.27c-.57.08-1.15,0-1.72.07a1.64,1.64,0,0,0-1.37.91c-.25.7.29,1.43.8,2,2.71,3,5.63,5.73,8.54,8.49a35.34,35.34,0,0,0,5.33,4.45,17.59,17.59,0,0,0,2.66,1.37" transform="translate(-10.32 -13.46)"/><path class="cls-37" d="M315.63,511.3l-.24.2a4.8,4.8,0,0,1-.86.64h0l-.19.08a4.32,4.32,0,0,1-.94.17,24.51,24.51,0,0,1-5,.13" transform="translate(-10.32 -13.46)"/><path class="cls-37" d="M308.37,512.53a6.58,6.58,0,0,1-2.17-.55" transform="translate(-10.32 -13.46)"/><path class="cls-37" d="M306.54,508.16a15.62,15.62,0,0,0,1.56-1.57,8.81,8.81,0,0,1,1.18-1.42l11.17-11.67c1-1,2-2,3.51-2a2.85,2.85,0,0,1,.49.06,2,2,0,0,1,.81.33,1.65,1.65,0,0,1,.4.39,2.68,2.68,0,0,1,.26,2.69,13.17,13.17,0,0,1-2.48,3q-1.5,1.64-3,3.23-3.09,3.18-6.31,6.23a15.9,15.9,0,0,1-2.88,2.3c-.36.21-1.8,1.77-2.84,2.76" transform="translate(-10.32 -13.46)"/><polyline class="cls-37" points="297.38 672.02 296.6 672.91 295.86 669.98 293.72 666.87 284.23 652.5 271.82 633.57"/><polyline class="cls-37" points="269.05 621.29 268.45 625.68 268.45 628.2 271.12 632.5 271.82 633.57"/><path class="cls-37" d="M279.37,634.75l1.63-12,2.81-20.66,2.67-19,3.26-16.74,6.39-38.5a48.49,48.49,0,0,0,6.25,2.16,15.31,15.31,0,0,0,4.1.51,10,10,0,0,0,1.22-.1,40.93,40.93,0,0,0,6-1.57l2.33-1,4.41,20.8,7.81,36.48L338,635.74l.56,4.22-.67,3.33-1.45,3.22-7.11,10-8.52,11.85-10.14,13.74-2.93,3.34" transform="translate(-10.32 -13.46)"/><line class="cls-37" x1="297.38" y1="522.03" x2="297.38" y2="517.03"/><line class="cls-37" x1="297.38" y1="652.04" x2="297.38" y2="522.03"/><line class="cls-37" x1="297.38" y1="652.04" x2="297.38" y2="657.24"/><line class="cls-37" x1="297.38" y1="657.24" x2="297.38" y2="672.02"/><path class="cls-37" d="M311.06,545.25a418,418,0,0,1,13.35,52.42q3.88,20.34,6.06,41a14.35,14.35,0,0,1-.13,5.43c-.66,2.31-2.39,4.13-4.06,5.85L314.55,662a76,76,0,0,0-6.85,8.7" transform="translate(-10.32 -13.46)"/><path class="cls-37" d="M311.06,545.25c-1.07-3.26-2.18-6.52-3.36-9.76" transform="translate(-10.32 -13.46)"/><polyline class="cls-37" points="276.14 628.88 276.14 630 277.08 631 280.92 634.83 285.81 639.5 293.72 647.5 295.53 649.61 297.38 652.04"/><polyline class="cls-37" points="276.14 628.88 276.14 628.67 276.58 624.94 278.07 616.19"/><polyline class="cls-37" points="278.07 616.19 280.42 602.33 286.08 562.28 290.82 528.5 292.05 516.64"/><path class="cls-37" d="M286.46,642.34a12.27,12.27,0,0,1-2.74,3.71,9.79,9.79,0,0,1-1.55,1l0,0" transform="translate(-10.32 -13.46)"/><path class="cls-37" d="M415.23,535.49c3.82,5.08,11.17,8.09,16.74,10.55q10.3,4.56,20.9,8.38a56,56,0,0,0,10.67,3,24.27,24.27,0,0,0,8.71-.44" transform="translate(-10.32 -13.46)"/><path class="cls-37" d="M433.71,522l6.29-3.71c6-3.53,12-7.55,18.21-10.67a3.69,3.69,0,0,0,1.5-1.29,3.77,3.77,0,0,0-.06-2.78l-.3-1a330.85,330.85,0,0,0-19.19-50.88" transform="translate(-10.32 -13.46)"/><path class="cls-37" d="M411.15,406.48c7.75,10,15.5,19.94,21.7,31,2.57,4.6,5,9.32,7.31,14.12" transform="translate(-10.32 -13.46)"/><path class="cls-37" d="M179.76,608.91s0,0,0,0" transform="translate(-10.32 -13.46)"/><path class="cls-37" d="M202.93,412.55a204.23,204.23,0,0,0-31.07,54.26A291.26,291.26,0,0,0,161,502.56a4.54,4.54,0,0,0-.11,2.55,4,4,0,0,0,.93,1.38c3.5,3.85,8.11,6.4,12.72,8.69a144.26,144.26,0,0,1,14.44,7.9c3.73,2.41,7.31,5,10.87,7.65l.21.16a11,11,0,0,1,2.73,2.58,4.25,4.25,0,0,1,.5,1,3.24,3.24,0,0,1,.19,1.27,4.92,4.92,0,0,1-2.42,3.42c-3,2.09-6.85,3.08-10.15,4.54-3.89,1.72-7.78,3.42-11.7,5.07-7.83,3.3-15.77,6.38-23.88,8.92a2.58,2.58,0,0,0-1.43.82c-.52.75-.12,1.76.29,2.56,8.22,16.15,16.33,32.27,25.62,47.84" transform="translate(-10.32 -13.46)"/><path class="cls-37" d="M411.15,406.48c-.33-1.16-.64-2.31-1-3.46-.21-.71-.39-1.55-.56-2.42" transform="translate(-10.32 -13.46)"/><path class="cls-37" d="M411.15,406.48c.84,3,1.64,5.94,2.35,8.94a225,225,0,0,1,4.55,25.26,228.82,228.82,0,0,1,.46,51.26c-4.61,44.4-19.6,88.5-39.54,128.25-8.94,17.81-19.58,34.53-30.12,51.4-1.64,2.63-3.61,5.16-5.46,7.64q-3.9,5.25-8.09,10.28-5.06,6.11-10.47,11.87c-3.54,3.78-8.18,6.52-12.37,9.54" transform="translate(-10.32 -13.46)"/><path class="cls-37" d="M209.68,400.4a63.25,63.25,0,0,0-3.85,6.15" transform="translate(-10.32 -13.46)"/><path class="cls-37" d="M202.93,412.55a63.52,63.52,0,0,1,2.9-6" transform="translate(-10.32 -13.46)"/><path class="cls-37" d="M202.93,412.55c-4.35,10.41-5.82,21.62-6.07,33.68a306.41,306.41,0,0,0,1.46,35.84c1.14,11.79,3.23,23.36,4.94,35.05q.84,5.7,1.21,11.45a15.74,15.74,0,0,0,.8,4.84l.09.23c4.34,10.9,7.5,22.14,11.21,33.24s7.68,22,12,32.77q4.2,10.4,8.88,20.6,7.45,16.15,16.16,31.68a231.33,231.33,0,0,0,21.55,32.16c7.54,9.31,15.91,16.67,24.94,24.28h0" transform="translate(-10.32 -13.46)"/><path class="cls-37" d="M279.37,742.75c-18.46-10.53-37.1-20.3-54.46-32.67-20.23-14.41-39.08-30.64-57.71-47-46.58-41-92.41-83.16-137.17-126.16" transform="translate(-10.32 -13.46)"/><path class="cls-37" d="M585.81,537.18q-67,64.35-136.85,125.87c-18.63,16.39-37.48,32.62-57.71,47-17.36,12.37-35.87,22.14-54.33,32.67" transform="translate(-10.32 -13.46)"/><path class="cls-37" d="M594,529.31c-2.72,2.62-5.43,5.25-8.16,7.87" transform="translate(-10.32 -13.46)"/><path class="cls-37" d="M21.89,529Q26,533,30,536.89" transform="translate(-10.32 -13.46)"/><path class="cls-37" d="M189.74,140.49v30.8l.42,52.35c.18,22.94-.29,46.12,4.32,68.72,4.78,23.45,15.09,44.23,26.59,64.93l3,5.19,1.08,2.55-9.89,11c-12.13,12.59-24.38,25-35.5,38.51-8.8,10.69-16.53,23.58-24.35,34.9-.59.86-2.42,1.6-3.3,2.18l-3.92,2.54c-2.51,1.62-5.05,3.21-7.59,4.79q-7.62,4.73-15.35,9.27c-20.7,12.21-41.67,24-62.65,35.67l-9.27,5.18L21.89,529" transform="translate(-10.32 -13.46)"/><path class="cls-37" d="M585.81,537.18l-33.49-22-35.77-19.7L468.1,469.18l-.13-.08a171,171,0,0,1,18,47.88,2.06,2.06,0,0,1-1.69,3q-6.58,1.93-13.16,3.94c-3.58,1.1-7.76,1.87-11.09,3.72a1.14,1.14,0,0,0-.41,1.59c1,1.39,3.24,1.65,4.73,2,2.08.48,4.16.89,6.26,1.24,4,.67,8.08,1.14,12.14,1.56,6.65.7,9.49,1,16.64,1.7,1.26.12,7.2.51,7.71,2a2.33,2.33,0,0,1-.53,1.89c-6,9.32-11.93,18.73-17.84,28.13l-21.12,31.77c-7.61,10.27-14.95,20.82-22.94,30.8q-9.84,12.29-19.83,24.43c-8.27,10-16.68,19.87-25.36,29.51a529.94,529.94,0,0,1-62.54,58.49q-6.78,5.46-13.73,10.77c-1,.76-15.52,10.89-16.33,11.41-.65-.53-12.29-10.25-13.28-11q-7.2-5.5-14.2-11.17a542.83,542.83,0,0,1-62.17-58.5c-8.68-9.64-17.09-19.51-25.35-29.51q-10-12.12-19.84-24.43c-8-10-15.33-20.53-22.94-30.8L128,567.74c-5.91-9.4-11.81-18.81-17.84-28.13a2.3,2.3,0,0,1-.53-1.89c.5-1.47,6.45-1.86,7.7-2,7.15-.71,10-1,16.64-1.7,4.06-.42,8.12-.89,12.14-1.56q3.15-.53,6.26-1.24c1.48-.35,3.73-.6,4.69-2a1.11,1.11,0,0,0-.33-1.62c-3.34-1.86-7.53-2.64-11.12-3.74q-6.57-2-13.17-3.94a2.76,2.76,0,0,1-1.53-.84,2.71,2.71,0,0,1-.15-2.17,170.75,170.75,0,0,1,18.59-49l-2,1.18L98.85,495.44l-35.78,19.7L30,536.89" transform="translate(-10.32 -13.46)"/><path class="cls-37" d="M229.69,493.55a132.27,132.27,0,0,0,14.11,18.68c.28.32,7.73,8.75,7.42,9.28a303,303,0,0,1,19-29.34" transform="translate(-10.32 -13.46)"/><path class="cls-37" d="M270.17,492.17c10.8-14.68,23.26-28.3,37.53-38.87" transform="translate(-10.32 -13.46)"/><path class="cls-37" d="M229.69,493.55c-1.31-2.17-2.52-4.39-3.63-6.68-.36-.75-.68-1.53-1-2.3" transform="translate(-10.32 -13.46)"/><path class="cls-37" d="M346.81,495.51c-7.52-12.36-16.38-25-28.16-33.53-.88-.65-9-7.47-10.95-8.68" transform="translate(-10.32 -13.46)"/><path class="cls-37" d="M346.81,495.51c.35.59.71,1.17,1.06,1.75,2.75,4.58,5.4,9.21,7.79,14q1.79,3.57,3.39,7.23c.35.79,3.35,6.62,2.91,7.14,2.75-3.22,5.65-6.35,8.29-9.65,4.51-5.64,8.88-11.62,12.93-17.77" transform="translate(-10.32 -13.46)"/><path class="cls-37" d="M383.18,498.21c2.89-4.4,5.62-8.88,8.11-13.42.33-.61.64-1.25.92-1.9" transform="translate(-10.32 -13.46)"/><path class="cls-37" d="M392.21,482.89c2-4.71,2.58-10.32,2.86-15.31.51-9.27.12-18.63.09-27.91l-.09-27c0-4.1.08-8.2,0-12.31a124.55,124.55,0,0,0-1-12.92c-.68-4.74-1.58-10.5-2.78-13l-1.52-2.61c-2.55,17.63-11.18,32.53-24.37,44.93-16.82,15.81-37.07,26.71-57.73,36.55" transform="translate(-10.32 -13.46)"/><path class="cls-37" d="M307.7,453.3c-14-7.13-28.69-14.5-41.62-23.55l-.58-.4c-8.41-5.91-16.76-12.12-23.59-19.87a85.8,85.8,0,0,1-15.64-25.22c-.57-1.46-1.79-6.65-1.67-8.22a16.67,16.67,0,0,0-1.06,2.34,100,100,0,0,0-1.77,11.71q-.68,6.74-1.16,13.51c-.6,8.47-.92,17-1.18,25.49-.55,17.67-1.44,38.81,5.62,55.48" transform="translate(-10.32 -13.46)"/><path class="cls-37" d="M300.16,708.37c-20.35-28.18-38.74-57.62-53.06-89.45-31-69-43.92-143.62-37.42-218.52" transform="translate(-10.32 -13.46)"/><path class="cls-37" d="M409.6,400.6l-.75-.82" transform="translate(-10.32 -13.46)"/><path class="cls-37" d="M312.46,710.92c8.8-12,24.94-36.39,26.57-39.31,22-39.43,41.69-80.34,54.82-123.52q2.43-8,4.58-16.06c1.45-5.46,2.81-10.95,4-16.46s2.38-11.15,3.37-16.77,1.87-11.28,2.58-17,1.27-11.35,1.65-17,.6-11.37.61-17.05-.17-11.3-.57-16.94-1-11.18-1.87-16.73c-.32-2.08-.64-4.17-1-6.25a28.36,28.36,0,0,1-.82-6.21,14.63,14.63,0,0,1,.76-3.67l1.67,1.84" transform="translate(-10.32 -13.46)"/><path class="cls-37" d="M179.78,608.94l0,0" transform="translate(-10.32 -13.46)"/><path class="cls-37" d="M179.76,608.91q-5.35-7.27-10.54-14.67c-8.65-12.42-19-25.4-25.68-39-.43-.87-.79-2-.24-2.76a3,3,0,0,1,1.6-.95l.39-.12c8.66-2.81,17.4-5.39,26.1-8.07L185.53,539c1.65-.51,3.36-.93,5-1.53a28.07,28.07,0,0,1,5.26-1.09c.75-.12,6.17-.67,6.37-1.29s-.31-1.35-.82-1.84a22.08,22.08,0,0,0-2.09-1.78A26.56,26.56,0,0,0,197,530c-6.44-3.84-14.18-5.91-21.17-8.56l-10.16-3.87" transform="translate(-10.32 -13.46)"/><path class="cls-37" d="M165.62,517.55c-5-1.94-10.06-3.94-15-6.11a3.61,3.61,0,0,1-2.6-5.3q.75-2.62,1.58-5.22" transform="translate(-10.32 -13.46)"/><path class="cls-37" d="M186.23,424c.57-.76,1.12-1.53,1.71-2.28,4.71-6.09,9.66-12,14.76-17.68" transform="translate(-10.32 -13.46)"/><path class="cls-37" d="M424.87,527.34a47.24,47.24,0,0,0-5.16,2.64,23.4,23.4,0,0,0-4.38,3.3c-.51.49-1,1.16-.81,1.84,0,.13.31.25.71.37" transform="translate(-10.32 -13.46)"/><path class="cls-37" d="M472.25,557c-6.69,12.94-16.53,25.37-24.82,37.27q-13.92,20-29.18,39c-21.24,26.5-45,50.88-69.65,74.17-11.78,11.11-29.59,24.52-41.75,35.21-12.16-10.69-27-24.1-38.79-35.21-24.69-23.29-48.42-47.67-69.66-74.17q-9.57-12-18.62-24.31" transform="translate(-10.32 -13.46)"/><path class="cls-37" d="M415.23,535.49a52.74,52.74,0,0,0,5.66.92,27.8,27.8,0,0,1,5.25,1.09c1.62.6,3.33,1,5,1.53l14.13,4.36c8.71,2.68,17.45,5.26,26.11,8.07l.38.12a3,3,0,0,1,1.61.95c.55.8.18,1.89-.25,2.76-.28.56-.57,1.12-.86,1.68" transform="translate(-10.32 -13.46)"/><path class="cls-37" d="M409.6,400.6c6.2,6.81,12.2,13.8,17.86,21.12a201.11,201.11,0,0,1,17.05,26.42" transform="translate(-10.32 -13.46)"/><path class="cls-37" d="M435.68,523.28c1.75-.61,3.49-1.22,5.19-1.86,8.44-3.2,16.91-6.35,25.18-10a4.76,4.76,0,0,0,2.77-2.19,4.84,4.84,0,0,0-.17-3.11C464,489.92,456.24,474.29,450,458.63c-1.8-3.55-3.63-7-5.52-10.49" transform="translate(-10.32 -13.46)"/><path class="cls-37" d="M435.68,523.28c-3.63,1.26-7.31,2.51-10.81,4.06" transform="translate(-10.32 -13.46)"/><path class="cls-37" d="M209.68,400.4c.13-1.48.25-3,.4-4.46-2.5,2.67-5,5.38-7.38,8.1" transform="translate(-10.32 -13.46)"/><path class="cls-37" d="M149.59,500.92c3.47-11.11,7.7-22,12-32.8" transform="translate(-10.32 -13.46)"/><path class="cls-37" d="M161.59,468.12c.88-2.21,1.76-4.41,2.63-6.62.77-1.91,1.61-3.8,2.56-5.63A223.93,223.93,0,0,1,186.23,424" transform="translate(-10.32 -13.46)"/><path class="cls-37" d="M300.16,708.37c2.21,3.06,4.43,6.11,6.69,9.14.28.39,2.48-2.32,5.61-6.59" transform="translate(-10.32 -13.46)"/><path class="cls-37" d="M424.87,527.34q4.39-2.73,8.83-5.36h0l9.66-7.06c3.28-2.48,6.77-4.71,10-7.26a7,7,0,0,0,2.43-2.53,6.35,6.35,0,0,0-.09-3.66A305,305,0,0,0,446.42,469c-.42-1.19-4.26-12.38-6.26-17.38" transform="translate(-10.32 -13.46)"/><line class="cls-37" x1="296.05" y1="225.98" x2="296.05" y2="216.83"/><polyline class="cls-37" points="296.05 225.98 278.97 218.43 246.75 204.72 221.86 194.5 197.53 183.83 191.53 180.61 191.53 131.89"/><path class="cls-37" d="M328.7,520.56c.77-.71,1.52-1.46,2.24-2.24a30.32,30.32,0,0,0,5.19-7.17,20.24,20.24,0,0,0,1.57-6.23c8,12.68,17.79,25.08,23.37,39,5.59-7.05,11.21-14.07,16.6-21.26a55.31,55.31,0,0,0,4.13-6.06c.14-.23.25-.47.38-.71" transform="translate(-10.32 -13.46)"/><path class="cls-37" d="M328.7,520.56c-.54.5-1.09,1-1.67,1.41l-.51.37,1.33,3.45a31.36,31.36,0,0,1,1.18,3.67c7.64,30.12,13.19,60.85,20,91.17l7.63-16.45c4.8-11.52,9.95-22.85,14.3-34.56a335.33,335.33,0,0,0,12.91-41.53,123.65,123.65,0,0,0,2.21-12.54,48.11,48.11,0,0,0,.53-6.33c0-.75-.34-2-.35-2.92-.35.79-.68,1.61-1,2.49a65.15,65.15,0,0,1-3,7" transform="translate(-10.32 -13.46)"/><path class="cls-37" d="M328.7,520.56a162.82,162.82,0,0,1,12.15,11.78c6.2,6.78,11.21,14.58,17.11,21.62l.67.47a125.72,125.72,0,0,0,9.29-13.28q4.77-7.47,9.18-15.18c.69-1.2,1.36-2.42,2-3.64,0,0,2.56-5.36,3-6.4l.08-.17" transform="translate(-10.32 -13.46)"/><path class="cls-37" d="M279.08,511c-1.49-2.19-3.71-5.51-3.71-5.51l-.32.39a138.5,138.5,0,0,0-11.61,15.77,142.56,142.56,0,0,0-8.89,17.68c-.3.71-2.46,4.73-2.15,5.23q-8-12.59-15.81-25.25" transform="translate(-10.32 -13.46)"/><path class="cls-37" d="M236.59,519.26c-2.76-4.46-5.53-8.92-8.27-13.4,0,0,.8,6.09,1.23,9.18,3.21,22.92,11.23,45.14,19.94,66.49q4.9,12,10.67,23.71c2.86,5.78,5.4,11.57,7.87,17.53l1.26-7.77c2.89-19.58,6.37-39.07,10.18-58.49,2.36-12,4.23-24.19,8.34-35.69l-.17-.14a62.78,62.78,0,0,1-7.29-7.91c-.15-.18-.64-.91-1.27-1.82" transform="translate(-10.32 -13.46)"/><path class="cls-37" d="M277.72,516.3A58.65,58.65,0,0,1,273.59,527q-4,7.74-8.62,15.16c-1.75,2.81-3.51,5.59-5.26,8.39" transform="translate(-10.32 -13.46)"/><path class="cls-37" d="M259.71,550.51l-1.65,2.63c-.06.1-3.88-2.48-4.17-2.67-8-5.16-12.88-14.33-15.4-23.27-.73-2.62-1.32-5.28-1.9-7.94" transform="translate(-10.32 -13.46)"/><path class="cls-37" d="M277.72,516.3c.51-1.77,1-3.56,1.36-5.35" transform="translate(-10.32 -13.46)"/><path class="cls-37" d="M277.72,516.3c-3.1,4.93-6.14,9.9-9,15-2.77,4.9-5.9,10.06-7.7,15.39-.43,1.29-.92,2.55-1.31,3.85" transform="translate(-10.32 -13.46)"/><polyline class="cls-37" points="206.25 136.74 296.05 169.24 296.08 169.25"/><line class="cls-37" x1="206.25" y1="136.74" x2="192.7" y2="131.83"/><line class="cls-37" x1="300.04" y1="168.14" x2="299.86" y2="168.2"/><polyline class="cls-37" points="192.7 131.83 191.68 131.46 191.53 131.41 179.42 127.03"/><polyline class="cls-37" points="299.86 168.2 296.45 169.39 296.08 169.25"/><line class="cls-37" x1="296.08" y1="176.76" x2="296.05" y2="215.7"/><line class="cls-37" x1="296.05" y1="215.7" x2="296.05" y2="216.83"/><polyline class="cls-37" points="296.08 176.76 296.08 176.65 296.08 169.25"/><path class="cls-37" d="M211.6,158.25c-.38-.16-.75-.31-1.12-.48a12.35,12.35,0,0,1-6-5.15c-1.17-2.25-1.3-4.85-1.47-7.33" transform="translate(-10.32 -13.46)"/><path class="cls-37" d="M306.34,190.11a9.25,9.25,0,0,1-5,.42,27.19,27.19,0,0,1-4.89-1.46l-20.57-7.56L238.52,168.4l-12.85-4.84-6.92-2.62c-2.37-.89-4.81-1.7-7.15-2.69" transform="translate(-10.32 -13.46)"/><path class="cls-37" d="M211.6,158.25v26.23l.17,2.18.52,1.82,1.11,1.37c.63.77,2.49,1.41,3.34,2,9.16,5.84,19.85,8.94,29.89,12.93q17.7,7,35.11,14.73a190.36,190.36,0,0,0,20.5,8l3,1,1.13.65" transform="translate(-10.32 -13.46)"/><path class="cls-37" d="M116.68,95.14h-4a12.94,12.94,0,0,0-2,.1,9.6,9.6,0,0,0-3.41,1.41.88.88,0,0,0-.11,1.43,8.38,8.38,0,0,0,2.5,1.25,2.8,2.8,0,0,1,.71.27l.84.31,1.62.59,3.25,1.19c1.22.46,2.45.93,3.69,1.32l1.89.61,2.68.86,3.39,1.08,4.06,1.3,4.64,1.49,5.16,1.65,5.61,1.79,6,1.93,6.32,2,6.58,2.11L173,120l6.89,2.21,6.94,2.22,6.93,2.21,6.85,2.2,6.7,2.14,6.49,2.08,6.21,2,5.86,1.87,5.46,1.75,5,1.59,4.42,1.41,3.82,1.22,3.13,1,2.38.76,1.57.5.7.22s0,0,0,0l29.34,10.23,7.74,3a59.12,59.12,0,0,1,10.65,5c1.11.71,2.19,1.46,3.3,2.15.78.49,1.85,1.36,2.81,1.32a2.69,2.69,0,0,0,1.06-.34c1.8-.87,3.32-2.13,5-3.16" transform="translate(-10.32 -13.46)"/><path class="cls-37" d="M306.65,36.67l-.76-1.38-.37.12-1.06.35-1.73.56c-45.37,14.83-90.45,30.34-136,44.7q-13.05,4.13-26.06,8.36l-13.26,4.34-1.1.36a18.13,18.13,0,0,1-3.42,1,11,11,0,0,1-1.28.05h-4.94" transform="translate(-10.32 -13.46)"/><path class="cls-37" d="M307.17,155.38a.73.73,0,0,0-.2-.26,18.51,18.51,0,0,0-3.4-1.59,73.4,73.4,0,0,0-6.84-2.75q-9.87-3.32-19.76-6.53C242.41,133,207.58,122.61,172.7,112.44l-19.56-5.69-20-5.81c-3.34-1-6.68-1.93-10-2.91-2.41-.7-4.16-2.09-6.43-2.89" transform="translate(-10.32 -13.46)"/><path class="cls-37" d="M307.17,156.56a2,2,0,0,0,0-1.18" transform="translate(-10.32 -13.46)"/><path class="cls-37" d="M312.2,163.58c-1.88-.78-3.56-1.09-4.93-2.77l-.1-.13" transform="translate(-10.32 -13.46)"/><path class="cls-37" d="M307.17,156.56c-.22,1-.76,2.19-.63,2.84a3,3,0,0,0,.63,1.28" transform="translate(-10.32 -13.46)"/><path class="cls-37" d="M306.82,106.12a23.44,23.44,0,0,0,3.14.07,33.08,33.08,0,0,0,6.9-1.23c6.66-1.79,13-4.53,19.4-7a119.36,119.36,0,0,1,15-4.62,16.36,16.36,0,0,1,3.48-.46l5.87-.17-2.37-.43-7-1-4.89-1.18c-4.86-1.23-9.58-2.6-14.37-4.14l-9.5-3-4.75-1.52c-1.2-.39-3-1.36-4.22-1.36a28.2,28.2,0,0,0-4.68-1.2,13.4,13.4,0,0,0-2.19-.11" transform="translate(-10.32 -13.46)"/><path class="cls-37" d="M306.82,106.12c-7.53-.64-14.58-4.68-21.81-7.27-7.66-2.74-15.49-3.41-23.52-3.71,3.89-.79,7.9-1.28,11.74-2.28a67.24,67.24,0,0,0,16.87-7.5A76.1,76.1,0,0,1,299,80.52a20.65,20.65,0,0,1,7.66-1.78" transform="translate(-10.32 -13.46)"/><polyline class="cls-37" points="296.85 141.92 296.85 140.28 296.5 92.66"/><line class="cls-37" x1="296.85" y1="141.92" x2="296.85" y2="143.1"/><path class="cls-37" d="M306.65,36.67a16.49,16.49,0,0,0-.31,2.19c0,.5,0,1,0,1.5s0,.94,0,1.41l0,3.66,0,4.53c0,1.69,0,3.38,0,5.07s0,3.52,0,5.28,0,3.45,0,5.18l0,4.74,0,4c0,1,0,1.94,0,2.9,0,.5,0,1,0,1.5v.13" transform="translate(-10.32 -13.46)"/><path class="cls-37" d="M211.6,217.74,203.29,213q-.19,17.1-.41,34.19c-.26,21.71,1.67,42.71,8.68,63.44a217.76,217.76,0,0,0,16,36.9A135.74,135.74,0,0,0,238.6,364.3c8.23,10.58,17.29,19.72,28.92,26.59a121.43,121.43,0,0,0,39.85,14.77,107.65,107.65,0,0,0,35-11.94,95.62,95.62,0,0,0,33.79-31.11c9-13.78,15.78-28.83,21.39-44.24,1.8-4.95,3.48-9.94,5.08-14.95,3.14-9.91,6.16-20,7-30.4,1.08-13,.22-26.08.22-39.06-1.65,2.86-4,5.48-3.9,9,0,1.46.41,2.87.43,4.33,0,2.39,0,4.79,0,7.18a127.76,127.76,0,0,1-1.57,20.21C402.18,290,396.1,305,390.72,319.5a200.62,200.62,0,0,1-7.79,18.75,108.89,108.89,0,0,1-25,33.22C345,383,328.56,389.94,312.21,395a16.7,16.7,0,0,1-4,.9c-.36,0-.72,0-1.09,0" transform="translate(-10.32 -13.46)"/><path class="cls-37" d="M460.52,139.15,441.27,145l-2.89.89L437,147.18l-.77,3v110L435.1,280.4l-1.33,10.11-4.67,17.23-7.77,20.44-9.48,20.45-7.49,12.07-.66,2-.19,1.26.3,1.3.91,1.52,15.22,15,12.5,12.89c11.38,12.94,23.23,25.28,32.18,40.15a37.71,37.71,0,0,0,3.54,5.28,29.1,29.1,0,0,0,4.25,3.9c6.86,5.39,14.55,9.55,22,14l78.22,43.7,30.85,18.43q-4.75,4.62-9.54,9.22" transform="translate(-10.32 -13.46)"/><path class="cls-37" d="M471.74,135.76l19.44-5.87,19.92-7.71L534,114l20.23-7.89,15-5.52-34.66-13L478.88,69.22l-79.11-25L336,22.63,307.66,14h-.92L278.4,22.63,214.63,44.18l-79.11,25L79.81,87.59l-34.67,13,15,5.52L80.4,114l22.89,8.22,19.93,7.71L173.13,145l2.89.89,1.38,1.33.78,3v110l1.11,20.22,1.34,10.11,4.66,17.23,7.78,20.44,9.48,20.45L210,360.7l.67,2,.19,1.26-.3,1.3-.91,1.52-15.22,15L182,394.63l-11.33,12.88-7.41,11.19-5.93,9.93-9,10.22-11.89,9.33L120,458l-78.22,43.7-30.59,17c3.56,3.46,7.16,6.92,10.74,10.37" transform="translate(-10.32 -13.46)"/><path class="cls-37" d="M421.42,142.91c.07,2.19.17,4.13.17,4.43v107.5c0,14.94-.59,29-4.56,43.61l-.36,1.31c-3.06,10.93-6.14,21.47-10.93,31.75-2.4,5.15-4.7,10.56-7.39,15.56-1.17,2.18-3.08,4.89-4.28,7.06-1.07,1.93-2.14,3.16-3.1,5.24-.83,1.77-1.52,3.58-1.08,5.48a11.79,11.79,0,0,0,4,6c2,1.7,3.75,3.56,5.56,5.43,12.13,12.59,25.09,24.74,36.22,38.25,8.8,10.69,16.53,23.58,24.35,34.9.59.86,2.42,1.6,3.3,2.18q1.95,1.28,3.91,2.54,3.78,2.43,7.59,4.79,7.62,4.73,15.35,9.27c20.7,12.21,41.67,24,62.66,35.67l9.26,5.18L594,529.31" transform="translate(-10.32 -13.46)"/><line class="cls-37" x1="411.1" y1="129.45" x2="450.22" y2="115.83"/><polyline class="cls-37" points="465.43 68.71 529.64 88.17 461.42 111.93"/><polyline class="cls-37" points="179.42 127.03 69.49 87.24 296.53 13.94 396.31 47.76 433.34 58.98"/><line class="cls-37" x1="411.1" y1="129.45" x2="399.55" y2="133.48"/><line class="cls-37" x1="393.75" y1="135.5" x2="399.55" y2="133.48"/><path class="cls-37" d="M404.07,149v40.33c0,.78-17.52,5.3-19.43,5.91-6.81,2.19-13.58,4.53-20.23,7.2-13.5,5.43-25.88,13-39,19.17-6.19,2.9-12.53,6.24-19,8.72" transform="translate(-10.32 -13.46)"/><path class="cls-37" d="M409.87,146.94v45.35c-20.32,8.11-40.38,16.54-60.2,25.89L326.73,229c-6.78,3.2-14.42,5.85-20.36,10.42" transform="translate(-10.32 -13.46)"/><line class="cls-37" x1="300.04" y1="168.14" x2="393.75" y2="135.5"/><path class="cls-37" d="M312.2,163.58l.28-.18a29,29,0,0,1,4.79-1.86l10.14-3.61,7.93-2.82.73-.26,46.11-15.11,63.41-20.45,15-4.41" transform="translate(-10.32 -13.46)"/><line class="cls-37" x1="461.42" y1="98.12" x2="474.45" y2="94.28"/><path class="cls-37" d="M473.39,91.13l30.7,9.23a.88.88,0,0,1,0,1.69l-19.31,5.69" transform="translate(-10.32 -13.46)"/><path class="cls-37" d="M436.34,80,383.22,64,307.5,37.74a.88.88,0,0,1-.48-.41l-.37-.66" transform="translate(-10.32 -13.46)"/><path class="cls-37" d="M307.17,155.38a91.52,91.52,0,0,1,17.32-7.47l57.71-17.15c17.05-5.07,34.11-10.14,51.43-14.22,8.94-2.11,17.91-3.71,26.92-5.15" transform="translate(-10.32 -13.46)"/><path class="cls-37" d="M484.77,107.74l-5.11.76-7.92,1.18" transform="translate(-10.32 -13.46)"/><path class="cls-37" d="M471.74,135.76V125.39" transform="translate(-10.32 -13.46)"/><path class="cls-37" d="M475.75,82.17A7.37,7.37,0,0,0,475,78a8.07,8.07,0,0,0-2-2.16,28,28,0,0,0-12.36-6,24.43,24.43,0,0,0-12.13.49,29.38,29.38,0,0,0-4.93,2.11" transform="translate(-10.32 -13.46)"/><path class="cls-37" d="M436.34,80a7.22,7.22,0,0,0,4.08,5.13c2.37,1.2,5.06,1.52,7.63,2.2a27.26,27.26,0,0,1,7.47,3.24,10.88,10.88,0,0,1,3.84,3.6c1.56,2.71,1.19,6.08,1.19,9.09v8.13" transform="translate(-10.32 -13.46)"/><path class="cls-37" d="M460.52,139.15c0,3.21,0,6.42.05,9.63.05,4.18.11,8.35.23,12.52.09,3.1.32,6.45-1.49,9.16a16.15,16.15,0,0,1-4.15,3.74c-3,2.27-5.88,5-7.2,8.57-1,2.79-1,5.84-1,8.82,0,15-.55,29.15-.06,44,.1,3.16.59,3.54,1.55,6.55,2.82,8.82,15.16,21.93,19.78,20.67,8.12-2.21,17.61-13.44,20.52-21.34,2.35-6.37,2-12.24,2.06-20.9.07-10.14.11-20.28,0-30.42,0-2.8-.12-5.74-1.54-8.15a15.45,15.45,0,0,0-3.19-3.52c-4.5-4-10.31-7-14.29-11.44a19.26,19.26,0,0,1,0-3.48V135.76" transform="translate(-10.32 -13.46)"/><path class="cls-37" d="M460.55,114.88V122c0,2.44,0,4.89,0,7.33" transform="translate(-10.32 -13.46)"/><path class="cls-37" d="M460.55,114.88v-3.49" transform="translate(-10.32 -13.46)"/><path class="cls-37" d="M460.54,129.29q0,4.92,0,9.86" transform="translate(-10.32 -13.46)"/><path class="cls-37" d="M473.39,91.13c-.28.82-.55,1.64-.78,2.47a25.76,25.76,0,0,0-.87,7.25v8.83" transform="translate(-10.32 -13.46)"/><path class="cls-37" d="M436.34,80a4.44,4.44,0,0,1,1.05-3.6A9.08,9.08,0,0,1,440,74.5c.12-.08.25-.15.38-.22,1.1-.64,2.2-1.25,3.33-1.84" transform="translate(-10.32 -13.46)"/><path class="cls-37" d="M471.74,109.68v1.9" transform="translate(-10.32 -13.46)"/><path class="cls-37" d="M471.74,111.58v13.81" transform="translate(-10.32 -13.46)"/><path class="cls-37" d="M475.75,82.17a2.45,2.45,0,0,0,0,.27,39.89,39.89,0,0,1-2.34,8.69" transform="translate(-10.32 -13.46)"/><path class="cls-37" d="M466.81,179.38l-.13,0a11.62,11.62,0,0,0-8,7.36c-1.49,3.79-1.51,8-1.51,12l0,30.54a29.64,29.64,0,0,0,.68,7.76A21.06,21.06,0,0,0,462.2,245c1.36,1.61,4.22,6.07,6.66,4.46,2.84-1.88,4.81-5.34,6.6-8.15a16.7,16.7,0,0,0,2.5-5.1,17,17,0,0,0,.3-3.84q0-16.9.11-33.81a27.22,27.22,0,0,0-.88-8.69,15.67,15.67,0,0,0-4.51-6.71C471.07,181.43,469.54,178.85,466.81,179.38Z" transform="translate(-10.32 -13.46)"/></svg>